<svg viewBox="0 0 1900 860" xmlns="http://www.w3.org/2000/svg" preserveAspectRatio="xMidYMid slice">
  <defs>
    <filter id="g1" x="-50%" y="-50%" width="200%" height="200%"><feGaussianBlur stdDeviation="52"/></filter>
    <filter id="g2" x="-30%" y="-30%" width="160%" height="160%"><feGaussianBlur stdDeviation="16"/></filter>
    <filter id="g3" x="-20%" y="-20%" width="140%" height="140%"><feGaussianBlur stdDeviation="3"/></filter>
  </defs>
  <rect width="1900" height="860" fill="#000000"/>
  <g fill="none" stroke-linecap="round">
    <!-- outer blue glow halo -->
    <path d="M -60 500 C 220 470 360 110 575 78 C 820 42 980 760 1165 742 C 1340 725 1430 468 1565 470 C 1700 472 1810 558 1980 532"
          stroke="#0a3edd" stroke-width="132" filter="url(#g1)" opacity="0.9"/>
    <!-- vivid blue body -->
    <path d="M -60 500 C 220 470 360 110 575 78 C 820 42 980 760 1165 742 C 1340 725 1430 468 1565 470 C 1700 472 1810 558 1980 532"
          stroke="#1e63ff" stroke-width="44" filter="url(#g2)" opacity="0.96"/>
    <!-- light-blue inner core -->
    <path d="M -60 500 C 220 470 360 110 575 78 C 820 42 980 760 1165 742 C 1340 725 1430 468 1565 470 C 1700 472 1810 558 1980 532"
          stroke="#bcd6ff" stroke-width="13" filter="url(#g3)"/>
    <!-- bright white-hot center -->
    <path d="M -60 500 C 220 470 360 110 575 78 C 820 42 980 760 1165 742 C 1340 725 1430 468 1565 470 C 1700 472 1810 558 1980 532"
          stroke="#f2f7ff" stroke-width="5"/>
  </g>
</svg>
